<svg width="30" height="30" viewBox="0 0 30 30" fill="none" xmlns="http://www.w3.org/2000/svg">
    <mask id="mask0_3590_5609" style="mask-type:luminance" maskUnits="userSpaceOnUse" x="3" y="2"
        width="23" height="27">
        <path fill-rule="evenodd" clip-rule="evenodd" d="M3.75 2.5H25.0485V28.5584H3.75V2.5Z"
            fill="white" />
    </mask>
    <g mask="url(#mask0_3590_5609)">
        <path fill-rule="evenodd" clip-rule="evenodd"
            d="M10.4273 4.375C7.24101 4.375 5.62476 5.6025 5.62476 8.02625V26.4313C5.62476 26.5487 5.69226 26.6125 5.74851 26.645C5.80476 26.68 5.89351 26.705 5.99601 26.6475L13.9735 22.1725C14.2585 22.0138 14.6073 22.0125 14.8935 22.1737L22.8023 26.6413C22.906 26.7013 22.9948 26.6737 23.051 26.64C23.1073 26.6063 23.1735 26.5425 23.1735 26.425V8.255C23.1735 7.29625 23.1735 4.375 18.376 4.375H10.4273ZM5.87351 28.5588C5.50476 28.5588 5.13601 28.46 4.80101 28.2625C4.14226 27.8787 3.74976 27.1925 3.74976 26.4313V8.02625C3.74976 4.51375 6.18351 2.5 10.4273 2.5H18.376C22.616 2.5 25.0485 4.59875 25.0485 8.255V26.425C25.0485 27.1875 24.656 27.8738 23.996 28.2575C23.3385 28.6425 22.546 28.65 21.881 28.275L14.431 24.0662L6.91226 28.2838C6.58726 28.4663 6.23101 28.5588 5.87351 28.5588Z"
            fill="currentColor" />
    </g>
    <path fill-rule="evenodd" clip-rule="evenodd"
        d="M18.9245 12.7856H9.77698C9.25948 12.7856 8.83948 12.3656 8.83948 11.8481C8.83948 11.3306 9.25948 10.9106 9.77698 10.9106H18.9245C19.442 10.9106 19.862 11.3306 19.862 11.8481C19.862 12.3656 19.442 12.7856 18.9245 12.7856Z"
        fill="currentColor" />
</svg>
