<svg width="24" height="24" viewBox="0 0 24 24" fill="none" xmlns="http://www.w3.org/2000/svg">
    <path fill-rule="evenodd" clip-rule="evenodd"
        d="M11.9951 17.4266C11.5811 17.4266 11.2451 17.0906 11.2451 16.6766V14.1396C11.2451 13.7256 11.5811 13.3896 11.9951 13.3896C12.4091 13.3896 12.7451 13.7256 12.7451 14.1396V16.6766C12.7451 17.0906 12.4091 17.4266 11.9951 17.4266Z"
        fill="currentColor" />
    <mask id="mask0_3590_5336" style="mask-type:luminance" maskUnits="userSpaceOnUse" x="2" y="4"
        width="20" height="11">
        <path fill-rule="evenodd" clip-rule="evenodd"
            d="M2.0002 4.58008H21.99V14.8911H2.0002V4.58008Z" fill="white" />
    </mask>
    <g mask="url(#mask0_3590_5336)">
        <path fill-rule="evenodd" clip-rule="evenodd"
            d="M3.5002 11.3931C5.8762 12.6841 8.8722 13.3911 11.9902 13.3911C15.1142 13.3911 18.1132 12.6841 20.4902 11.3931V8.39108C20.4902 7.11608 19.4592 6.08008 18.1902 6.08008H5.8102C4.5362 6.08008 3.5002 7.11208 3.5002 8.38108V11.3931ZM11.9902 14.8911C8.4452 14.8911 5.0282 14.0331 2.3712 12.4771C2.1412 12.3431 2.0002 12.0971 2.0002 11.8301V8.38108C2.0002 6.28508 3.7092 4.58008 5.8102 4.58008H18.1902C20.2862 4.58008 21.9902 6.28908 21.9902 8.39108V11.8301C21.9902 12.0971 21.8482 12.3431 21.6192 12.4771C18.9622 14.0331 15.5422 14.8911 11.9902 14.8911Z"
            fill="currentColor" />
    </g>
    <mask id="mask1_3590_5336" style="mask-type:luminance" maskUnits="userSpaceOnUse" x="7" y="2"
        width="10" height="5">
        <path fill-rule="evenodd" clip-rule="evenodd"
            d="M7.7451 2.00024H16.2451V6.07614H7.7451V2.00024Z" fill="white" />
    </mask>
    <g mask="url(#mask1_3590_5336)">
        <path fill-rule="evenodd" clip-rule="evenodd"
            d="M15.4951 6.07624C15.0811 6.07624 14.7451 5.74024 14.7451 5.32624V4.96024C14.7451 4.15524 14.0901 3.50024 13.2851 3.50024H10.7051C9.9001 3.50024 9.2451 4.15524 9.2451 4.96024V5.32624C9.2451 5.74024 8.9091 6.07624 8.4951 6.07624C8.0811 6.07624 7.7451 5.74024 7.7451 5.32624V4.96024C7.7451 3.32824 9.0731 2.00024 10.7051 2.00024H13.2851C14.9171 2.00024 16.2451 3.32824 16.2451 4.96024V5.32624C16.2451 5.74024 15.9091 6.07624 15.4951 6.07624Z"
            fill="currentColor" />
    </g>
    <path fill-rule="evenodd" clip-rule="evenodd"
        d="M17.7949 21.7402H6.1949C4.1199 21.7402 2.3729 20.1192 2.2159 18.0492L2.0259 15.5402C1.9949 15.1272 2.3049 14.7662 2.7179 14.7352C3.1329 14.7202 3.4909 15.0132 3.5229 15.4272L3.7119 17.9352C3.8099 19.2272 4.8999 20.2402 6.1949 20.2402H17.7949C19.0899 20.2402 20.1809 19.2272 20.2779 17.9352L20.4679 15.4272C20.4999 15.0132 20.8669 14.7192 21.2729 14.7352C21.6859 14.7662 21.9949 15.1272 21.9639 15.5402L21.7739 18.0492C21.6169 20.1192 19.8699 21.7402 17.7949 21.7402Z"
        fill="currentColor" />
</svg>
