<svg width="31" height="31" viewBox="0 0 31 31" fill="none" xmlns="http://www.w3.org/2000/svg">
    <path fill-rule="evenodd" clip-rule="evenodd"
        d="M13.0201 24.0156H4.88135C4.3466 24.0156 3.9126 23.5816 3.9126 23.0469C3.9126 22.5121 4.3466 22.0781 4.88135 22.0781H13.0201C13.5549 22.0781 13.9889 22.5121 13.9889 23.0469C13.9889 23.5816 13.5549 24.0156 13.0201 24.0156Z"
        fill="#ffb600" />
    <path fill-rule="evenodd" clip-rule="evenodd"
        d="M24.7883 11.4963H16.6508C16.116 11.4963 15.682 11.0623 15.682 10.5276C15.682 9.99284 16.116 9.55884 16.6508 9.55884H24.7883C25.323 9.55884 25.757 9.99284 25.757 10.5276C25.757 11.0623 25.323 11.4963 24.7883 11.4963Z"
        fill="#ffb600" />
    <mask id="mask0_3632_5178" style="mask-type:luminance" maskUnits="userSpaceOnUse" x="3" y="6"
        width="9" height="9">
        <path fill-rule="evenodd" clip-rule="evenodd"
            d="M3.875 6.45874H11.9167V14.4562H3.875V6.45874Z" fill="white" />
    </mask>
    <g mask="url(#mask0_3632_5178)">
        <path fill-rule="evenodd" clip-rule="evenodd"
            d="M7.89571 8.39575C6.74742 8.39575 5.81226 9.32058 5.81226 10.4585C5.81226 11.5952 6.74742 12.5188 7.89571 12.5188C9.0453 12.5188 9.97917 11.5952 9.97917 10.4585C9.97917 9.32058 9.0453 8.39575 7.89571 8.39575ZM7.89571 14.4563C5.67921 14.4563 3.87476 12.6634 3.87476 10.4585C3.87476 8.25367 5.67921 6.45825 7.89571 6.45825C10.1135 6.45825 11.9167 8.25367 11.9167 10.4585C11.9167 12.6634 10.1135 14.4563 7.89571 14.4563Z"
            fill="#ffb600" />
    </g>
    <path fill-rule="evenodd" clip-rule="evenodd"
        d="M22.4591 20.9353C21.3096 20.9353 20.3744 21.8601 20.3744 22.9968C20.3744 24.1348 21.3096 25.0583 22.4591 25.0583C23.6074 25.0583 24.5413 24.1348 24.5413 22.9968C24.5413 21.8601 23.6074 20.9353 22.4591 20.9353ZM22.4591 26.9958C20.2413 26.9958 18.4369 25.2017 18.4369 22.9968C18.4369 20.7919 20.2413 18.9978 22.4591 18.9978C24.6756 18.9978 26.4788 20.7919 26.4788 22.9968C26.4788 25.2017 24.6756 26.9958 22.4591 26.9958Z"
        fill="#ffb600" />
</svg>
