<svg width="19" height="18" viewBox="0 0 19 18" fill="none" xmlns="http://www.w3.org/2000/svg">
<path d="M17.78 0H1.22C0.82175 0 0.5 0.32175 0.5 0.72V17.28C0.5 17.6783 0.82175 18 1.22 18H17.78C18.1783 18 18.5 17.6783 18.5 17.28V0.72C18.5 0.32175 18.1783 0 17.78 0ZM15.701 5.25375H14.2633C13.136 5.25375 12.9178 5.78925 12.9178 6.57675V8.3115H15.6088L15.2578 11.0273H12.9178V18H10.112V11.0295H7.76525V8.3115H10.112V6.309C10.112 3.98475 11.5318 2.718 13.6063 2.718C14.6008 2.718 15.4535 2.79225 15.7033 2.826V5.25375H15.701Z" fill="white"/>
</svg>
